<mxfile modified="2021-06-27T14:17:50.194Z" host="app.diagrams.net" agent="5.0 (Windows NT 10.0; Win64; x64) AppleWebKit/537.36 (KHTML, like Gecko) Chrome/91.0.4472.114 Safari/537.36" etag="edLQZDWyIMdQzW1lfvAD" version="14.8.0" type="github">
  <diagram id="f106602c-feb2-e66a-4537-3a34d633f6aa" name="Page-1">
    <mxGraphModel dx="813" dy="435" grid="1" gridSize="10" guides="1" tooltips="1" connect="1" arrows="1" fold="1" page="1" pageScale="1" pageWidth="1169" pageHeight="827" background="none" math="0" shadow="0">
      <root>
        <mxCell id="0" />
        <mxCell id="1" parent="0" />
        <mxCell id="14" value="多模态情感计算" style="fillColor=#F6F6F6;strokeColor=none;shadow=0;gradientColor=none;fontSize=14;align=left;spacing=10;fontColor=#717171;9E9E9E;verticalAlign=top;spacingTop=-4;fontStyle=0;spacingLeft=40;" parent="1" vertex="1">
          <mxGeometry x="400" y="110" width="400" height="320" as="geometry" />
        </mxCell>
        <mxCell id="8_cZJhwKtjIsKoZ_xuZb-1057" style="edgeStyle=orthogonalEdgeStyle;rounded=0;orthogonalLoop=1;jettySize=auto;html=0;entryX=0;entryY=0.5;entryDx=0;entryDy=0;dashed=0;labelBackgroundColor=none;fontSize=5;startFill=1;endArrow=blockThin;endFill=1;startSize=4;endSize=4;strokeColor=#4284F3;strokeWidth=8;align=left;" edge="1" parent="1" source="997" target="14">
          <mxGeometry relative="1" as="geometry" />
        </mxCell>
        <mxCell id="8_cZJhwKtjIsKoZ_xuZb-1058" style="edgeStyle=orthogonalEdgeStyle;rounded=0;orthogonalLoop=1;jettySize=auto;html=0;exitX=1;exitY=0.25;exitDx=0;exitDy=0;entryX=0.003;entryY=0.293;entryDx=0;entryDy=0;entryPerimeter=0;dashed=0;labelBackgroundColor=none;fontSize=5;startFill=1;endArrow=blockThin;endFill=1;startSize=4;endSize=4;strokeColor=#4284F3;strokeWidth=8;align=left;" edge="1" parent="1" source="997" target="14">
          <mxGeometry relative="1" as="geometry" />
        </mxCell>
        <mxCell id="8_cZJhwKtjIsKoZ_xuZb-1059" style="edgeStyle=orthogonalEdgeStyle;rounded=0;orthogonalLoop=1;jettySize=auto;html=0;exitX=1;exitY=0.75;exitDx=0;exitDy=0;entryX=0.002;entryY=0.706;entryDx=0;entryDy=0;entryPerimeter=0;dashed=0;labelBackgroundColor=none;fontSize=5;startFill=1;endArrow=blockThin;endFill=1;startSize=4;endSize=4;strokeColor=#4284F3;strokeWidth=8;align=left;" edge="1" parent="1" source="997" target="14">
          <mxGeometry relative="1" as="geometry" />
        </mxCell>
        <mxCell id="997" value="" style="rounded=1;absoluteArcSize=1;arcSize=2;strokeColor=none;gradientColor=none;shadow=0;dashed=0;fontSize=12;fontColor=#9E9E9E;align=center;verticalAlign=top;spacing=10;spacingTop=-4;fillColor=#F1F8E9;" parent="1" vertex="1">
          <mxGeometry x="260" y="137.25" width="90" height="265.5" as="geometry" />
        </mxCell>
        <mxCell id="985" value="vision" style="strokeColor=#dddddd;fillColor=#ffffff;shadow=1;strokeWidth=1;rounded=1;absoluteArcSize=1;arcSize=2;labelPosition=center;verticalLabelPosition=middle;align=center;verticalAlign=bottom;spacingLeft=0;fontColor=#999999;fontSize=12;spacingBottom=2;" parent="1" vertex="1">
          <mxGeometry x="280" y="173.07" width="50" height="50" as="geometry" />
        </mxCell>
        <mxCell id="8_cZJhwKtjIsKoZ_xuZb-1015" value="" style="edgeStyle=orthogonalEdgeStyle;rounded=0;orthogonalLoop=1;jettySize=auto;exitX=1;exitY=0.5;exitDx=0;exitDy=0;entryX=0;entryY=0.5;entryDx=0;entryDy=0;dashed=0;labelBackgroundColor=none;fontSize=12;startFill=1;endArrow=blockThin;endFill=1;startSize=4;endSize=4;strokeColor=#4284F3;strokeWidth=2;align=left;" edge="1" parent="1" source="989" target="995">
          <mxGeometry relative="1" as="geometry" />
        </mxCell>
        <mxCell id="8_cZJhwKtjIsKoZ_xuZb-1046" style="edgeStyle=orthogonalEdgeStyle;rounded=0;orthogonalLoop=1;jettySize=auto;html=0;exitX=1;exitY=0.5;exitDx=0;exitDy=0;entryX=0;entryY=0.5;entryDx=0;entryDy=0;dashed=0;labelBackgroundColor=none;fontSize=5;startFill=1;endArrow=blockThin;endFill=1;startSize=4;endSize=4;strokeColor=#4284F3;strokeWidth=2;align=left;" edge="1" parent="1" source="989" target="8_cZJhwKtjIsKoZ_xuZb-1043">
          <mxGeometry relative="1" as="geometry" />
        </mxCell>
        <mxCell id="8_cZJhwKtjIsKoZ_xuZb-1052" style="edgeStyle=orthogonalEdgeStyle;rounded=0;orthogonalLoop=1;jettySize=auto;html=0;exitX=1;exitY=0.5;exitDx=0;exitDy=0;entryX=0;entryY=0.5;entryDx=0;entryDy=0;dashed=0;labelBackgroundColor=none;fontSize=5;startFill=1;endArrow=blockThin;endFill=1;startSize=4;endSize=4;strokeColor=#4284F3;strokeWidth=2;align=left;" edge="1" parent="1" source="989" target="8_cZJhwKtjIsKoZ_xuZb-1050">
          <mxGeometry relative="1" as="geometry" />
        </mxCell>
        <mxCell id="8_cZJhwKtjIsKoZ_xuZb-1063" style="edgeStyle=orthogonalEdgeStyle;rounded=0;orthogonalLoop=1;jettySize=auto;html=0;entryX=0.5;entryY=0;entryDx=0;entryDy=0;dashed=0;labelBackgroundColor=none;fontSize=5;startFill=1;endArrow=blockThin;endFill=1;startSize=4;endSize=4;strokeColor=#4284F3;strokeWidth=2;align=left;" edge="1" parent="1" source="989" target="8_cZJhwKtjIsKoZ_xuZb-1062">
          <mxGeometry relative="1" as="geometry" />
        </mxCell>
        <mxCell id="8_cZJhwKtjIsKoZ_xuZb-1064" style="edgeStyle=orthogonalEdgeStyle;rounded=0;orthogonalLoop=1;jettySize=auto;html=0;exitX=0.5;exitY=0;exitDx=0;exitDy=0;entryX=0.5;entryY=1;entryDx=0;entryDy=0;dashed=0;labelBackgroundColor=none;fontSize=5;startFill=1;endArrow=blockThin;endFill=1;startSize=4;endSize=4;strokeColor=#4284F3;strokeWidth=2;align=left;" edge="1" parent="1" source="989" target="8_cZJhwKtjIsKoZ_xuZb-1060">
          <mxGeometry relative="1" as="geometry" />
        </mxCell>
        <mxCell id="989" value="" style="strokeColor=#dddddd;fillColor=#ffffff;shadow=1;strokeWidth=1;rounded=1;absoluteArcSize=1;arcSize=2;fontSize=11;fontColor=#9E9E9E;align=center;" parent="1" vertex="1">
          <mxGeometry x="420" y="244.13" width="130" height="60" as="geometry" />
        </mxCell>
        <mxCell id="990" value="    多模态情绪&#xa;    情感分析" style="dashed=0;connectable=0;fillColor=#5184F3;strokeColor=none;shape=mxgraph.gcp2.hexIcon;prIcon=cloud_load_balancing;part=1;labelPosition=right;verticalLabelPosition=middle;align=center;verticalAlign=middle;spacingLeft=5;fontColor=#999999;fontSize=12;fontStyle=1" parent="989" vertex="1">
          <mxGeometry y="0.5" width="44" height="39" relative="1" as="geometry">
            <mxPoint x="5" y="-19.5" as="offset" />
          </mxGeometry>
        </mxCell>
        <mxCell id="8_cZJhwKtjIsKoZ_xuZb-1053" style="edgeStyle=orthogonalEdgeStyle;rounded=0;orthogonalLoop=1;jettySize=auto;html=0;entryX=0.5;entryY=0;entryDx=0;entryDy=0;dashed=0;labelBackgroundColor=none;fontSize=5;startFill=1;endArrow=blockThin;endFill=1;startSize=4;endSize=4;strokeColor=#4284F3;strokeWidth=2;align=left;" edge="1" parent="1" source="995" target="8_cZJhwKtjIsKoZ_xuZb-1050">
          <mxGeometry relative="1" as="geometry" />
        </mxCell>
        <mxCell id="995" value="" style="strokeColor=#dddddd;fillColor=#ffffff;shadow=1;strokeWidth=1;rounded=1;absoluteArcSize=1;arcSize=2;fontSize=11;fontColor=#9E9E9E;align=center;" parent="1" vertex="1">
          <mxGeometry x="610" y="243.57" width="150" height="60" as="geometry" />
        </mxCell>
        <mxCell id="996" value="基于生成方法的&#xa;数据模态缺失的&#xa;多模态情感计算&#xa;" style="dashed=0;connectable=0;fillColor=#5184F3;strokeColor=none;shape=mxgraph.gcp2.hexIcon;prIcon=container_engine;part=1;labelPosition=right;verticalLabelPosition=middle;align=left;verticalAlign=top;spacingLeft=5;fontColor=#999999;fontSize=12;spacingTop=-8;fontStyle=1" parent="995" vertex="1">
          <mxGeometry width="44" height="39" relative="1" as="geometry">
            <mxPoint x="5" y="7" as="offset" />
          </mxGeometry>
        </mxCell>
        <mxCell id="A9Urtk9K6G82j6xpJFMX-1001" value="audio" style="strokeColor=#dddddd;fillColor=#ffffff;shadow=1;strokeWidth=1;rounded=1;absoluteArcSize=1;arcSize=2;labelPosition=center;verticalLabelPosition=middle;align=center;verticalAlign=bottom;spacingLeft=0;fontColor=#999999;fontSize=12;spacingBottom=2;" parent="1" vertex="1">
          <mxGeometry x="280" y="247.57" width="50" height="50" as="geometry" />
        </mxCell>
        <mxCell id="A9Urtk9K6G82j6xpJFMX-1002" value="text" style="strokeColor=#dddddd;fillColor=#ffffff;shadow=1;strokeWidth=1;rounded=1;absoluteArcSize=1;arcSize=2;labelPosition=center;verticalLabelPosition=middle;align=center;verticalAlign=bottom;spacingLeft=0;fontColor=#999999;fontSize=12;spacingBottom=2;" parent="1" vertex="1">
          <mxGeometry x="280" y="323.07" width="50" height="50" as="geometry" />
        </mxCell>
        <mxCell id="8_cZJhwKtjIsKoZ_xuZb-1043" value="" style="strokeColor=#dddddd;fillColor=#ffffff;shadow=1;strokeWidth=1;rounded=1;absoluteArcSize=1;arcSize=2;fontSize=11;fontColor=#9E9E9E;align=center;" vertex="1" parent="1">
          <mxGeometry x="610" y="135.32" width="150" height="60" as="geometry" />
        </mxCell>
        <mxCell id="8_cZJhwKtjIsKoZ_xuZb-1044" value="&#xa;多模态动态融合&#xa;   的情感计算" style="dashed=0;connectable=0;fillColor=#5184F3;strokeColor=none;shape=mxgraph.gcp2.hexIcon;prIcon=container_engine;part=1;labelPosition=right;verticalLabelPosition=middle;align=left;verticalAlign=middle;spacingLeft=5;fontColor=#999999;fontSize=12;spacingTop=-8;fontStyle=1" vertex="1" parent="8_cZJhwKtjIsKoZ_xuZb-1043">
          <mxGeometry width="44" height="39" relative="1" as="geometry">
            <mxPoint x="5" y="7" as="offset" />
          </mxGeometry>
        </mxCell>
        <mxCell id="8_cZJhwKtjIsKoZ_xuZb-1050" value="" style="strokeColor=#dddddd;fillColor=#ffffff;shadow=1;strokeWidth=1;rounded=1;absoluteArcSize=1;arcSize=2;fontSize=11;fontColor=#9E9E9E;align=center;" vertex="1" parent="1">
          <mxGeometry x="610" y="352.94" width="150" height="60" as="geometry" />
        </mxCell>
        <mxCell id="8_cZJhwKtjIsKoZ_xuZb-1051" value="基于半监督方法&#xa;  的多模态情感&#xa;         计算" style="dashed=0;connectable=0;fillColor=#5184F3;strokeColor=none;shape=mxgraph.gcp2.hexIcon;prIcon=container_engine;part=1;labelPosition=right;verticalLabelPosition=middle;align=left;verticalAlign=top;spacingLeft=5;fontColor=#999999;fontSize=12;spacingTop=-8;fontStyle=1" vertex="1" parent="8_cZJhwKtjIsKoZ_xuZb-1050">
          <mxGeometry width="44" height="39" relative="1" as="geometry">
            <mxPoint x="5" y="7" as="offset" />
          </mxGeometry>
        </mxCell>
        <mxCell id="8_cZJhwKtjIsKoZ_xuZb-1060" value="极性分析" style="strokeColor=#dddddd;fillColor=#ffffff;shadow=1;strokeWidth=1;rounded=1;absoluteArcSize=1;arcSize=2;fontSize=11;fontColor=#9E9E9E;align=center;" vertex="1" parent="1">
          <mxGeometry x="440" y="160" width="90" height="40" as="geometry" />
        </mxCell>
        <mxCell id="8_cZJhwKtjIsKoZ_xuZb-1062" value="六大情感分类" style="strokeColor=#dddddd;fillColor=#ffffff;shadow=1;strokeWidth=1;rounded=1;absoluteArcSize=1;arcSize=2;fontSize=11;fontColor=#9E9E9E;align=center;" vertex="1" parent="1">
          <mxGeometry x="440" y="352.94" width="90" height="40" as="geometry" />
        </mxCell>
      </root>
    </mxGraphModel>
  </diagram>
</mxfile>
